HIERARCHY
ROOT Hips
{
  OFFSET -4.35178 90.3298 111.633
  CHANNELS 6 Xposition Yposition Zposition Zrotation Xrotation Yrotation
  JOINT LeftUpLeg
  {
    OFFSET 0.103456 1.85784 10.5485
    CHANNELS 6 Xposition Yposition Zposition Zrotation Xrotation Yrotation
    JOINT LeftLeg
    {
      OFFSET 43.5 -4.2e-05 0
      CHANNELS 6 Xposition Yposition Zposition Zrotation Xrotation Yrotation
      JOINT LeftFoot
      {
        OFFSET 42.3722 1.9e-05 0
        CHANNELS 6 Xposition Yposition Zposition Zrotation Xrotation Yrotation
        JOINT LeftToe
        {
          OFFSET 17.3 0 0
          CHANNELS 6 Xposition Yposition Zposition Zrotation Xrotation Yrotation
          End Site
          {
            OFFSET 0 0 0
          }
        }
      }
    }
  }
  JOINT RightUpLeg
  {
    OFFSET 0.103456 1.85782 -10.5485
    CHANNELS 6 Xposition Yposition Zposition Zrotation Xrotation Yrotation
    JOINT RightLeg
    {
      OFFSET 43.5 -2.7e-05 0
      CHANNELS 6 Xposition Yposition Zposition Zrotation Xrotation Yrotation
      JOINT RightFoot
      {
        OFFSET 42.3723 0 0
        CHANNELS 6 Xposition Yposition Zposition Zrotation Xrotation Yrotation
        JOINT RightToe
        {
          OFFSET 17.3 0 1.7e-05
          CHANNELS 6 Xposition Yposition Zposition Zrotation Xrotation Yrotation
          End Site
          {
            OFFSET 0 0 0
          }
        }
      }
    }
  }
  JOINT Spine
  {
    OFFSET 6.90197 -2.60373 0
    CHANNELS 6 Xposition Yposition Zposition Zrotation Xrotation Yrotation
    JOINT Spine1
    {
      OFFSET 12.5881 0 0
      CHANNELS 6 Xposition Yposition Zposition Zrotation Xrotation Yrotation
      JOINT Spine2
      {
        OFFSET 12.3432 -1.8e-05 0
        CHANNELS 6 Xposition Yposition Zposition Zrotation Xrotation Yrotation
        JOINT Neck
        {
          OFFSET 25.8329 2.3e-05 0
          CHANNELS 6 Xposition Yposition Zposition Zrotation Xrotation Yrotation
          JOINT Head
          {
            OFFSET 11.7666 0 0
            CHANNELS 6 Xposition Yposition Zposition Zrotation Xrotation Yrotation
            End Site
            {
              OFFSET 0 0 0
            }
          }
        }
        JOINT LeftShoulder
        {
          OFFSET 19.7459 -1.48035 6.0001
          CHANNELS 6 Xposition Yposition Zposition Zrotation Xrotation Yrotation
          JOINT LeftArm
          {
            OFFSET 11.2841 1.8e-05 -2e-05
            CHANNELS 6 Xposition Yposition Zposition Zrotation Xrotation Yrotation
            JOINT LeftForeArm
            {
              OFFSET 33 -1.3e-05 1.9e-05
              CHANNELS 6 Xposition Yposition Zposition Zrotation Xrotation Yrotation
              JOINT LeftHand
              {
                OFFSET 25.2 3.2e-05 1.1e-05
                CHANNELS 6 Xposition Yposition Zposition Zrotation Xrotation Yrotation
                End Site
                {
                  OFFSET 0 0 0
                }
              }
            }
          }
        }
        JOINT RightShoulder
        {
          OFFSET 19.7461 -1.48036 -6.00008
          CHANNELS 6 Xposition Yposition Zposition Zrotation Xrotation Yrotation
          JOINT RightArm
          {
            OFFSET 11.2841 0 0
            CHANNELS 6 Xposition Yposition Zposition Zrotation Xrotation Yrotation
            JOINT RightForeArm
            {
              OFFSET 33.0001 1.6e-05 0
              CHANNELS 6 Xposition Yposition Zposition Zrotation Xrotation Yrotation
              JOINT RightHand
              {
                OFFSET 25.1998 0.000123 0.000432
                CHANNELS 6 Xposition Yposition Zposition Zrotation Xrotation Yrotation
                End Site
                {
                  OFFSET 0 0 0
                }
              }
            }
          }
        }
      }
    }
  }
}
MOTION
Frames:	6
Frame Time:	0.0333333
50.0493 91.9572 128.892 1.41989 84.6691 92.4766 0.103456 1.85784 10.5485 -2.88162 15.8904 -175.824 43.5 -4.2e-05 1e-05 -25.2501 -6.99294 -3.50879 42.3722 1.9e-05 -2.13163e-14 73.9986 2.57502 -0.837329 17.3 -1.42109e-14 3e-06 21.4546 -1e-06 0.003093 0.103456 1.85782 -10.5485 7.94153 -4.6649 174.973 43.5 -2.7e-05 4e-06 -3.29302 12.0579 3.11803 42.3723 0 1e-05 81.1622 11.1464 -11.6213 17.3 -6e-06 1.7e-05 21.4546 -1.9e-05 -0.003116 6.90197 -2.60373 -3e-06 6.67759 0.468112 -0.60298 12.5881 1e-05 8e-06 3.33827 0.900817 -1.24248 12.3432 -1.8e-05 -5e-06 3.01057 0.869992 -1.28739 25.8329 2.3e-05 7e-06 8.30453 1.71532 -8.10483 11.7666 -8e-06 -6e-06 -10.8514 -2.46151 12.4803 19.7459 -1.48035 6.0001 -176.468 -3.28395 -82.2002 11.2841 1.8e-05 -2e-05 -13.0985 -8.12518 65.5922 33 -1.3e-05 1.9e-05 -28.749 8.9305 -7.72184 25.2 3.2e-05 1.1e-05 -14.3872 29.7169 3.84455 19.7461 -1.48036 -6.00008 -178.067 -1.74012 69.6615 11.2841 0 -1e-06 -30.4382 -10.1494 -37.5482 33.0001 1.6e-05 -1e-06 -47.7243 1.157 13.5851 25.1998 0.000123 0.000432 5.71604 -19.9888 13.8277 
49.8593 91.8987 129.086 -3.75197 84.4724 97.7105 0.103456 1.85784 10.5485 -2.41137 16.5845 -175.969 43.5 -4.2e-05 1e-05 -24.8108 -7.41589 -3.47459 42.3722 1.9e-05 7.10543e-15 74.2946 2.36259 -0.365918 17.3 0 3e-06 21.4546 -1e-06 0.003093 0.103456 1.85782 -10.5485 8.12416 -4.96579 175.031 43.5 -2.7e-05 4e-06 -3.68136 12.1735 3.17855 42.3723 0 1e-05 81.5466 11.1841 -11.6058 17.3 -6e-06 1.7e-05 21.4546 -1.9e-05 -0.003116 6.90197 -2.60373 -3e-06 6.6804 0.444823 -0.570608 12.5881 1e-05 8e-06 3.34378 0.858606 -1.17486 12.3432 -1.8e-05 -5e-06 3.0165 0.832141 -1.21728 25.8329 2.3e-05 7e-06 8.2545 1.6208 -8.01874 11.7666 -8e-06 -6e-06 -10.6115 -2.52737 12.5113 19.7459 -1.48035 6.0001 -176.367 -3.31582 -82.0598 11.2841 1.8e-05 -2e-05 -12.9566 -8.04807 65.5046 33 -1.3e-05 1.9e-05 -28.8874 8.84167 -7.66472 25.2 3.2e-05 1.1e-05 -14.4537 29.7379 3.81267 19.7461 -1.48036 -6.00008 -178.143 -1.59149 69.8915 11.2841 0 -1e-06 -30.5871 -10.1397 -37.3987 33.0001 1.6e-05 -1e-06 -49.2533 1.39004 13.835 25.1998 0.000123 0.000432 5.14198 -19.9909 13.9964 
49.7025 91.8251 129.337 -9.10862 84.2526 103.119 0.103456 1.85784 10.5485 -1.73549 17.0238 -176.159 43.5 -4.2e-05 1e-05 -23.994 -7.67823 -3.37876 42.3722 1.9e-05 7.10543e-15 74.6124 2.23441 -0.240751 17.3 0 3e-06 21.4546 -1e-06 0.003093 0.103456 1.85782 -10.5485 8.39903 -5.07694 175.099 43.5 -2.7e-05 4e-06 -3.94608 12.332 3.20238 42.3723 0 1e-05 81.9431 11.3413 -11.6817 17.3 -6e-06 1.7e-05 21.4546 -1.9e-05 -0.003116 6.90197 -2.60373 -3e-06 6.63871 0.396781 -0.535143 12.5881 1e-05 8e-06 3.26055 0.766775 -1.09769 12.3432 -1.8e-05 -5e-06 2.9344 0.743997 -1.13475 25.8329 2.3e-05 7e-06 8.22615 1.5682 -7.94877 11.7666 -8e-06 -6e-06 -10.1347 -2.52191 12.5628 19.7459 -1.48035 6.0001 -176.241 -3.50878 -81.8158 11.2841 1.8e-05 -2e-05 -12.8424 -7.81934 65.3976 33 -1.3e-05 1.9e-05 -29.0787 8.66106 -7.55099 25.2 3.2e-05 1.1e-05 -14.5335 29.5949 3.90945 19.7461 -1.48036 -6.00008 -178.12 -1.34915 69.8508 11.2841 0 -1e-06 -30.7336 -10.4786 -37.411 33.0001 1.6e-05 -1e-06 -50.328 1.37526 14.0664 25.1998 0.000123 0.000432 4.67271 -20.0441 14.1044 
49.592 91.7606 129.651 -13.5081 84.054 107.589 0.103456 1.85784 10.5485 -0.886751 16.8477 -176.439 43.5 -4.2e-05 1e-05 -22.8931 -7.71223 -3.16816 42.3722 1.9e-05 0 74.9442 2.02763 -0.466189 17.3 0 3e-06 21.4546 -1e-06 0.003093 0.103456 1.85782 -10.5485 8.62861 -4.99609 175.134 43.5 -2.7e-05 4e-06 -4.27308 12.4992 3.1696 42.3723 0 1e-05 82.4064 11.6463 -11.7949 17.3 -6e-06 1.7e-05 21.4546 -1.9e-05 -0.003116 6.90197 -2.60373 -3e-06 6.56035 0.353879 -0.505867 12.5881 1e-05 8e-06 3.10404 0.683882 -1.03349 12.3432 -1.8e-05 -5e-06 2.77892 0.662906 -1.06587 25.8329 2.3e-05 7e-06 8.20946 1.59464 -7.90556 11.7666 -8e-06 -6e-06 -9.5115 -2.4028 12.6541 19.7459 -1.48035 6.0001 -176.093 -3.7929 -81.5486 11.2841 1.8e-05 -2e-05 -12.751 -7.53105 65.3464 33 -1.3e-05 1.9e-05 -29.0914 8.51436 -7.48861 25.2 3.2e-05 1.1e-05 -14.6678 29.4631 3.98362 19.7461 -1.48036 -6.00008 -177.969 -1.0808 69.6174 11.2841 0 -1e-06 -30.8993 -11.0831 -37.6246 33.0001 1.6e-05 -1e-06 -50.8058 1.43184 14.1189 25.1998 0.000123 0.000432 4.36478 -20.1806 14.2937 
49.4979 91.7123 129.935 -17.763 83.8657 111.865 0.103456 1.85784 10.5485 -0.142757 16.5891 -176.528 43.5 -4.2e-05 1e-05 -21.7983 -7.60224 -3.07505 42.3722 1.9e-05 7.10543e-15 75.1088 1.64293 -0.949166 17.3 0 3e-06 21.4546 -1e-06 0.003093 0.103456 1.85782 -10.5485 8.78235 -4.953 175.232 43.5 -2.7e-05 4e-06 -4.5987 12.684 3.12072 42.3723 -1.42109e-14 1e-05 82.8192 11.8427 -11.9512 17.3 -6e-06 1.7e-05 21.4546 -1.9e-05 -0.003116 6.90197 -2.60373 -3e-06 6.47803 0.302742 -0.467665 12.5881 1e-05 8e-06 2.93971 0.585505 -0.950527 12.3432 -1.8e-05 -5e-06 2.6158 0.567378 -0.977346 25.8329 2.3e-05 7e-06 8.19518 1.5961 -7.81743 11.7666 -8e-06 -6e-06 -9.05945 -2.36984 12.7609 19.7459 -1.48035 6.0001 -175.967 -4.09416 -81.3165 11.2841 1.8e-05 -2e-05 -12.6694 -7.31194 65.4324 33 -1.3e-05 1.9e-05 -28.9624 8.51114 -7.51598 25.2 3.2e-05 1.1e-05 -14.6089 29.4408 3.99704 19.7461 -1.48036 -6.00008 -177.646 -0.971884 69.1932 11.2841 -1.42109e-14 -1e-06 -30.8061 -11.6868 -37.9768 33.0001 1.6e-05 -1e-06 -50.6655 1.42826 14.1266 25.1998 0.000123 0.000432 4.16122 -20.2203 14.3381 
49.4264 91.6883 130.197 -21.1023 83.6987 115.191 0.103456 1.85784 10.5485 0.440785 16.3718 -176.484 43.5 -4.2e-05 1e-05 -20.9397 -7.46895 -3.06149 42.3722 1.9e-05 7.10543e-15 75.1751 1.30376 -1.44569 17.3 0 3e-06 21.4546 -1e-06 0.003093 0.103456 1.85782 -10.5485 8.91412 -4.965 175.375 43.5 -2.7e-05 4e-06 -4.85756 12.8558 3.06977 42.3723 0 1e-05 83.1091 11.8324 -12.1437 17.3 -6e-06 1.7e-05 21.4546 -1.9e-05 -0.003116 6.90197 -2.60373 -3e-06 6.40595 0.262794 -0.432579 12.5881 1e-05 8e-06 2.7958 0.509162 -0.875368 12.3432 -1.8e-05 -5e-06 2.4728 0.493672 -0.89791 25.8329 2.3e-05 7e-06 8.17261 1.55908 -7.68922 11.7666 -8e-06 -6e-06 -8.88972 -2.43021 12.8493 19.7459 -1.48035 6.0001 -175.905 -4.40708 -81.1144 11.2841 1.8e-05 -2e-05 -12.5558 -7.18066 65.5402 33 -1.3e-05 1.9e-05 -28.6113 8.44608 -7.60073 25.2 3.2e-05 1.1e-05 -14.4515 29.2268 4.13424 19.7461 -1.48036 -6.00008 -177.134 -1.03765 68.6058 11.2841 0 -1e-06 -30.4461 -12.2373 -38.486 33.0001 1.6e-05 -1e-06 -49.9708 1.47737 14.0854 25.1998 0.000123 0.000432 4.14962 -20.262 14.433 
